# xmcd
#
# Track frame offsets: 
#        150
#        17105
#        33868
#        52707
#        76346
#        95787
#        119325
#        144509
#        161595
#        180802
#        204391
#
# Disc length: 3042 seconds
#
# Revision: 1
# Processed by: cddbd v1.5.2PL0 Copyright (c) Steve Scherf et al.
# Submitted via: ExactAudioCopy v0.99pb5
#
DISCID=800be00b
DTITLE=Deborah Coleman - What About Love?
DYEAR=2004
DGENRE=Blues
TTITLE0=Bad Boy
TTITLE1=Lie No Better
TTITLE2=Undeniable
TTITLE3=Can You Hear Me?
TTITLE4=When Will I Be Loved?
TTITLE5=Healing Ground
TTITLE6=The River Wild
TTITLE7=What About Love?
TTITLE8=Loves Like Rain
TTITLE9=Lookin' For A Real Love
TTITLE10=A Woman In Love
EXTD=YEAR: 2004
EXTT0=
EXTT1=
EXTT2=
EXTT3=
EXTT4=
EXTT5=
EXTT6=
EXTT7=
EXTT8=
EXTT9=
EXTT10=
PLAYORDER=
